<mxfile host="65bd71144e">
    <diagram id="XWb7JlpLXdBKy7acEdoQ" name="Page-1">
        <mxGraphModel dx="580" dy="473" grid="1" gridSize="10" guides="1" tooltips="1" connect="1" arrows="1" fold="1" page="1" pageScale="1" pageWidth="827" pageHeight="1169" math="0" shadow="0">
            <root>
                <mxCell id="i4efpvkQJd50QpCkNYs4-0"/>
                <mxCell id="i4efpvkQJd50QpCkNYs4-1" parent="i4efpvkQJd50QpCkNYs4-0"/>
                <mxCell id="i4efpvkQJd50QpCkNYs4-2" value="" style="edgeStyle=orthogonalEdgeStyle;orthogonalLoop=1;jettySize=auto;html=1;fillColor=#e1d5e7;" parent="i4efpvkQJd50QpCkNYs4-1" source="i4efpvkQJd50QpCkNYs4-3" target="i4efpvkQJd50QpCkNYs4-5" edge="1">
                    <mxGeometry relative="1" as="geometry"/>
                </mxCell>
                <mxCell id="i4efpvkQJd50QpCkNYs4-3" value="Start" style="ellipse;whiteSpace=wrap;html=1;" parent="i4efpvkQJd50QpCkNYs4-1" vertex="1">
                    <mxGeometry x="354" y="20" width="96" height="40" as="geometry"/>
                </mxCell>
                <mxCell id="i4efpvkQJd50QpCkNYs4-4" value="" style="edgeStyle=orthogonalEdgeStyle;orthogonalLoop=1;jettySize=auto;html=1;" parent="i4efpvkQJd50QpCkNYs4-1" source="i4efpvkQJd50QpCkNYs4-5" target="i4efpvkQJd50QpCkNYs4-6" edge="1">
                    <mxGeometry relative="1" as="geometry">
                        <Array as="points">
                            <mxPoint x="400" y="230"/>
                            <mxPoint x="400" y="230"/>
                        </Array>
                    </mxGeometry>
                </mxCell>
                <mxCell id="i4efpvkQJd50QpCkNYs4-5" value="Establish connection with database and load data" style="whiteSpace=wrap;html=1;" parent="i4efpvkQJd50QpCkNYs4-1" vertex="1">
                    <mxGeometry x="342" y="130" width="120" height="60" as="geometry"/>
                </mxCell>
                <mxCell id="i4efpvkQJd50QpCkNYs4-6" value="Login or Register" style="shape=parallelogram;perimeter=parallelogramPerimeter;whiteSpace=wrap;html=1;fixedSize=1;" parent="i4efpvkQJd50QpCkNYs4-1" vertex="1">
                    <mxGeometry x="342" y="270" width="120" height="60" as="geometry"/>
                </mxCell>
                <mxCell id="i4efpvkQJd50QpCkNYs4-7" value="" style="edgeStyle=orthogonalEdgeStyle;orthogonalLoop=1;jettySize=auto;html=1;" parent="i4efpvkQJd50QpCkNYs4-1" source="i4efpvkQJd50QpCkNYs4-8" target="i4efpvkQJd50QpCkNYs4-17" edge="1">
                    <mxGeometry relative="1" as="geometry"/>
                </mxCell>
                <mxCell id="i4efpvkQJd50QpCkNYs4-8" value="Receive login details" style="shape=parallelogram;perimeter=parallelogramPerimeter;whiteSpace=wrap;html=1;fixedSize=1;" parent="i4efpvkQJd50QpCkNYs4-1" vertex="1">
                    <mxGeometry x="510" y="270" width="150" height="60" as="geometry"/>
                </mxCell>
                <mxCell id="i4efpvkQJd50QpCkNYs4-9" value="" style="endArrow=classic;html=1;exitX=1;exitY=0.5;exitDx=0;exitDy=0;" parent="i4efpvkQJd50QpCkNYs4-1" source="i4efpvkQJd50QpCkNYs4-6" target="i4efpvkQJd50QpCkNYs4-8" edge="1">
                    <mxGeometry relative="1" as="geometry">
                        <mxPoint x="460" y="300" as="sourcePoint"/>
                        <mxPoint x="550" y="299.8" as="targetPoint"/>
                    </mxGeometry>
                </mxCell>
                <mxCell id="i4efpvkQJd50QpCkNYs4-10" value="Login" style="edgeLabel;resizable=0;html=1;align=center;verticalAlign=middle;" parent="i4efpvkQJd50QpCkNYs4-9" connectable="0" vertex="1">
                    <mxGeometry relative="1" as="geometry"/>
                </mxCell>
                <mxCell id="i4efpvkQJd50QpCkNYs4-11" value="" style="endArrow=classic;html=1;entryX=0.5;entryY=1;entryDx=0;entryDy=0;" parent="i4efpvkQJd50QpCkNYs4-1" source="i4efpvkQJd50QpCkNYs4-8" target="i4efpvkQJd50QpCkNYs4-13" edge="1">
                    <mxGeometry relative="1" as="geometry">
                        <mxPoint x="635" y="170" as="sourcePoint"/>
                        <mxPoint x="635" y="170" as="targetPoint"/>
                    </mxGeometry>
                </mxCell>
                <mxCell id="i4efpvkQJd50QpCkNYs4-12" value="Forgot Credentails?" style="edgeLabel;resizable=0;html=1;align=center;verticalAlign=middle;" parent="i4efpvkQJd50QpCkNYs4-11" connectable="0" vertex="1">
                    <mxGeometry relative="1" as="geometry"/>
                </mxCell>
                <mxCell id="i4efpvkQJd50QpCkNYs4-13" value="Receive email ID and verify" style="shape=parallelogram;perimeter=parallelogramPerimeter;whiteSpace=wrap;html=1;fixedSize=1;" parent="i4efpvkQJd50QpCkNYs4-1" vertex="1">
                    <mxGeometry x="510" y="125" width="145" height="70" as="geometry"/>
                </mxCell>
                <mxCell id="i4efpvkQJd50QpCkNYs4-14" value="" style="endArrow=classic;html=1;entryX=-0.005;entryY=0.455;entryDx=0;entryDy=0;entryPerimeter=0;" parent="i4efpvkQJd50QpCkNYs4-1" source="i4efpvkQJd50QpCkNYs4-13" target="i4efpvkQJd50QpCkNYs4-15" edge="1">
                    <mxGeometry width="50" height="50" relative="1" as="geometry">
                        <mxPoint x="655" y="210" as="sourcePoint"/>
                        <mxPoint x="700" y="160" as="targetPoint"/>
                    </mxGeometry>
                </mxCell>
                <mxCell id="i4efpvkQJd50QpCkNYs4-15" value="Send username and password with associated email from database" style="shape=cylinder3;whiteSpace=wrap;html=1;boundedLbl=1;backgroundOutline=1;size=15;" parent="i4efpvkQJd50QpCkNYs4-1" vertex="1">
                    <mxGeometry x="690" y="110" width="110" height="110" as="geometry"/>
                </mxCell>
                <mxCell id="i4efpvkQJd50QpCkNYs4-16" value="" style="endArrow=classic;html=1;entryX=1;entryY=0.5;entryDx=0;entryDy=0;exitX=0.5;exitY=1;exitDx=0;exitDy=0;exitPerimeter=0;" parent="i4efpvkQJd50QpCkNYs4-1" source="i4efpvkQJd50QpCkNYs4-15" target="i4efpvkQJd50QpCkNYs4-8" edge="1">
                    <mxGeometry width="50" height="50" relative="1" as="geometry">
                        <mxPoint x="755" y="270" as="sourcePoint"/>
                        <mxPoint x="755" y="290.71067811865476" as="targetPoint"/>
                        <Array as="points">
                            <mxPoint x="745" y="300"/>
                        </Array>
                    </mxGeometry>
                </mxCell>
                <mxCell id="i4efpvkQJd50QpCkNYs4-17" value="Verify email, phone number and unique username" style="whiteSpace=wrap;html=1;" parent="i4efpvkQJd50QpCkNYs4-1" vertex="1">
                    <mxGeometry x="525" y="380" width="120" height="60" as="geometry"/>
                </mxCell>
                <mxCell id="i4efpvkQJd50QpCkNYs4-18" value="" style="endArrow=classic;html=1;entryX=1;entryY=0.5;entryDx=0;entryDy=0;" parent="i4efpvkQJd50QpCkNYs4-1" source="i4efpvkQJd50QpCkNYs4-6" target="i4efpvkQJd50QpCkNYs4-21" edge="1">
                    <mxGeometry relative="1" as="geometry">
                        <mxPoint x="242" y="300" as="sourcePoint"/>
                        <mxPoint x="242" y="300" as="targetPoint"/>
                    </mxGeometry>
                </mxCell>
                <mxCell id="i4efpvkQJd50QpCkNYs4-19" value="Register" style="edgeLabel;resizable=0;html=1;align=center;verticalAlign=middle;" parent="i4efpvkQJd50QpCkNYs4-18" connectable="0" vertex="1">
                    <mxGeometry relative="1" as="geometry"/>
                </mxCell>
                <mxCell id="i4efpvkQJd50QpCkNYs4-20" value="" style="edgeStyle=orthogonalEdgeStyle;rounded=0;orthogonalLoop=1;jettySize=auto;html=1;" parent="i4efpvkQJd50QpCkNYs4-1" source="i4efpvkQJd50QpCkNYs4-21" target="i4efpvkQJd50QpCkNYs4-22" edge="1">
                    <mxGeometry relative="1" as="geometry"/>
                </mxCell>
                <mxCell id="i4efpvkQJd50QpCkNYs4-21" value="&amp;nbsp; Receive register details and send OTP to given email" style="shape=parallelogram;perimeter=parallelogramPerimeter;whiteSpace=wrap;html=1;fixedSize=1;" parent="i4efpvkQJd50QpCkNYs4-1" vertex="1">
                    <mxGeometry x="90" y="270" width="180" height="60" as="geometry"/>
                </mxCell>
                <mxCell id="i4efpvkQJd50QpCkNYs4-22" value="Verify received OTP" style="whiteSpace=wrap;html=1;" parent="i4efpvkQJd50QpCkNYs4-1" vertex="1">
                    <mxGeometry x="120" y="410" width="120" height="60" as="geometry"/>
                </mxCell>
                <mxCell id="i4efpvkQJd50QpCkNYs4-23" value="" style="endArrow=classic;html=1;entryX=0;entryY=0.75;entryDx=0;entryDy=0;" parent="i4efpvkQJd50QpCkNYs4-1" source="i4efpvkQJd50QpCkNYs4-22" target="i4efpvkQJd50QpCkNYs4-21" edge="1">
                    <mxGeometry relative="1" as="geometry">
                        <mxPoint x="30" y="440" as="sourcePoint"/>
                        <mxPoint x="30" y="440" as="targetPoint"/>
                        <Array as="points">
                            <mxPoint x="40" y="440"/>
                            <mxPoint x="40" y="314"/>
                        </Array>
                    </mxGeometry>
                </mxCell>
                <mxCell id="i4efpvkQJd50QpCkNYs4-24" value="OTP incorrect" style="edgeLabel;resizable=0;html=1;align=center;verticalAlign=middle;" parent="i4efpvkQJd50QpCkNYs4-23" connectable="0" vertex="1">
                    <mxGeometry relative="1" as="geometry"/>
                </mxCell>
                <mxCell id="i4efpvkQJd50QpCkNYs4-25" value="" style="endArrow=classic;html=1;entryX=0.5;entryY=0;entryDx=0;entryDy=0;entryPerimeter=0;" parent="i4efpvkQJd50QpCkNYs4-1" source="i4efpvkQJd50QpCkNYs4-22" target="i4efpvkQJd50QpCkNYs4-31" edge="1">
                    <mxGeometry relative="1" as="geometry">
                        <mxPoint x="190" y="470" as="sourcePoint"/>
                        <mxPoint x="190" y="570" as="targetPoint"/>
                    </mxGeometry>
                </mxCell>
                <mxCell id="i4efpvkQJd50QpCkNYs4-26" value="OTP correct" style="edgeLabel;resizable=0;html=1;align=center;verticalAlign=middle;" parent="i4efpvkQJd50QpCkNYs4-25" connectable="0" vertex="1">
                    <mxGeometry relative="1" as="geometry"/>
                </mxCell>
                <mxCell id="i4efpvkQJd50QpCkNYs4-27" value="" style="endArrow=classic;html=1;exitX=0.523;exitY=-0.006;exitDx=0;exitDy=0;exitPerimeter=0;" parent="i4efpvkQJd50QpCkNYs4-1" source="i4efpvkQJd50QpCkNYs4-21" edge="1">
                    <mxGeometry relative="1" as="geometry">
                        <mxPoint x="190" y="170" as="sourcePoint"/>
                        <mxPoint x="400" y="230" as="targetPoint"/>
                        <Array as="points">
                            <mxPoint x="184" y="230"/>
                        </Array>
                    </mxGeometry>
                </mxCell>
                <mxCell id="i4efpvkQJd50QpCkNYs4-28" value="Back" style="edgeLabel;resizable=0;html=1;align=center;verticalAlign=middle;" parent="i4efpvkQJd50QpCkNYs4-27" connectable="0" vertex="1">
                    <mxGeometry relative="1" as="geometry"/>
                </mxCell>
                <mxCell id="i4efpvkQJd50QpCkNYs4-29" value="" style="endArrow=classic;html=1;exitX=0.25;exitY=0;exitDx=0;exitDy=0;" parent="i4efpvkQJd50QpCkNYs4-1" source="i4efpvkQJd50QpCkNYs4-8" edge="1">
                    <mxGeometry relative="1" as="geometry">
                        <mxPoint x="585" y="170" as="sourcePoint"/>
                        <mxPoint x="400" y="230" as="targetPoint"/>
                        <Array as="points">
                            <mxPoint x="548" y="250"/>
                            <mxPoint x="470" y="250"/>
                            <mxPoint x="470" y="230"/>
                        </Array>
                    </mxGeometry>
                </mxCell>
                <mxCell id="i4efpvkQJd50QpCkNYs4-30" value="Back" style="edgeLabel;html=1;align=center;verticalAlign=middle;resizable=0;points=[];" parent="i4efpvkQJd50QpCkNYs4-29" vertex="1" connectable="0">
                    <mxGeometry x="-0.0933" relative="1" as="geometry">
                        <mxPoint as="offset"/>
                    </mxGeometry>
                </mxCell>
                <mxCell id="i4efpvkQJd50QpCkNYs4-31" value="Update new user in database" style="shape=cylinder3;whiteSpace=wrap;html=1;boundedLbl=1;backgroundOutline=1;size=15;" parent="i4efpvkQJd50QpCkNYs4-1" vertex="1">
                    <mxGeometry x="135" y="570" width="90" height="90" as="geometry"/>
                </mxCell>
                <mxCell id="i4efpvkQJd50QpCkNYs4-32" value="" style="endArrow=classic;html=1;" parent="i4efpvkQJd50QpCkNYs4-1" source="i4efpvkQJd50QpCkNYs4-17" edge="1">
                    <mxGeometry relative="1" as="geometry">
                        <mxPoint x="425" y="410" as="sourcePoint"/>
                        <mxPoint x="280" y="300" as="targetPoint"/>
                        <Array as="points">
                            <mxPoint x="280" y="410"/>
                        </Array>
                    </mxGeometry>
                </mxCell>
                <mxCell id="i4efpvkQJd50QpCkNYs4-33" value="Username not valid" style="edgeLabel;resizable=0;html=1;align=center;verticalAlign=middle;" parent="i4efpvkQJd50QpCkNYs4-32" connectable="0" vertex="1">
                    <mxGeometry relative="1" as="geometry"/>
                </mxCell>
                <mxCell id="i4efpvkQJd50QpCkNYs4-34" value="" style="endArrow=classic;html=1;" parent="i4efpvkQJd50QpCkNYs4-1" source="i4efpvkQJd50QpCkNYs4-17" edge="1">
                    <mxGeometry relative="1" as="geometry">
                        <mxPoint x="645" y="410" as="sourcePoint"/>
                        <mxPoint x="710" y="300" as="targetPoint"/>
                        <Array as="points">
                            <mxPoint x="710" y="410"/>
                        </Array>
                    </mxGeometry>
                </mxCell>
                <mxCell id="i4efpvkQJd50QpCkNYs4-35" value="Password incorrect" style="edgeLabel;resizable=0;html=1;align=center;verticalAlign=middle;" parent="i4efpvkQJd50QpCkNYs4-34" connectable="0" vertex="1">
                    <mxGeometry relative="1" as="geometry"/>
                </mxCell>
                <mxCell id="i4efpvkQJd50QpCkNYs4-36" value="" style="endArrow=classic;html=1;entryX=0.52;entryY=-0.038;entryDx=0;entryDy=0;entryPerimeter=0;" parent="i4efpvkQJd50QpCkNYs4-1" source="i4efpvkQJd50QpCkNYs4-17" target="i4efpvkQJd50QpCkNYs4-38" edge="1">
                    <mxGeometry relative="1" as="geometry">
                        <mxPoint x="585" y="440" as="sourcePoint"/>
                        <mxPoint x="585" y="540" as="targetPoint"/>
                    </mxGeometry>
                </mxCell>
                <mxCell id="i4efpvkQJd50QpCkNYs4-37" value="All details valid" style="edgeLabel;resizable=0;html=1;align=center;verticalAlign=middle;" parent="i4efpvkQJd50QpCkNYs4-36" connectable="0" vertex="1">
                    <mxGeometry relative="1" as="geometry"/>
                </mxCell>
                <mxCell id="i4efpvkQJd50QpCkNYs4-38" value="Display home page" style="shape=parallelogram;perimeter=parallelogramPerimeter;whiteSpace=wrap;html=1;fixedSize=1;" parent="i4efpvkQJd50QpCkNYs4-1" vertex="1">
                    <mxGeometry x="510" y="540" width="145" height="60" as="geometry"/>
                </mxCell>
                <mxCell id="i4efpvkQJd50QpCkNYs4-40" value="" style="endArrow=classic;html=1;entryX=0.5;entryY=0;entryDx=0;entryDy=0;" parent="i4efpvkQJd50QpCkNYs4-1" source="i4efpvkQJd50QpCkNYs4-38" target="i4efpvkQJd50QpCkNYs4-44" edge="1">
                    <mxGeometry relative="1" as="geometry">
                        <mxPoint x="582.5" y="600" as="sourcePoint"/>
                        <mxPoint x="280" y="800" as="targetPoint"/>
                        <Array as="points">
                            <mxPoint x="583" y="760"/>
                            <mxPoint x="323" y="760"/>
                        </Array>
                    </mxGeometry>
                </mxCell>
                <mxCell id="i4efpvkQJd50QpCkNYs4-41" value="" style="endArrow=classic;html=1;exitX=0.5;exitY=1;exitDx=0;exitDy=0;entryX=0.558;entryY=0;entryDx=0;entryDy=0;entryPerimeter=0;" parent="i4efpvkQJd50QpCkNYs4-1" source="i4efpvkQJd50QpCkNYs4-38" target="i4efpvkQJd50QpCkNYs4-49" edge="1">
                    <mxGeometry width="50" height="50" relative="1" as="geometry">
                        <mxPoint x="582.5" y="650" as="sourcePoint"/>
                        <mxPoint x="510" y="760" as="targetPoint"/>
                        <Array as="points">
                            <mxPoint x="583" y="760"/>
                            <mxPoint x="647" y="760"/>
                        </Array>
                    </mxGeometry>
                </mxCell>
                <mxCell id="i4efpvkQJd50QpCkNYs4-43" value="" style="edgeStyle=orthogonalEdgeStyle;rounded=0;orthogonalLoop=1;jettySize=auto;html=1;" parent="i4efpvkQJd50QpCkNYs4-1" source="i4efpvkQJd50QpCkNYs4-44" target="i4efpvkQJd50QpCkNYs4-58" edge="1">
                    <mxGeometry relative="1" as="geometry"/>
                </mxCell>
                <mxCell id="i4efpvkQJd50QpCkNYs4-44" value="Booking button&lt;br&gt;clicked" style="shape=parallelogram;perimeter=parallelogramPerimeter;whiteSpace=wrap;html=1;fixedSize=1;" parent="i4efpvkQJd50QpCkNYs4-1" vertex="1">
                    <mxGeometry x="262.5" y="780" width="120" height="60" as="geometry"/>
                </mxCell>
                <mxCell id="i4efpvkQJd50QpCkNYs4-48" value="" style="edgeStyle=orthogonalEdgeStyle;rounded=0;orthogonalLoop=1;jettySize=auto;html=1;startArrow=none;" parent="i4efpvkQJd50QpCkNYs4-1" source="kv-EeIZ5R_QERG43kqW9-0" target="i4efpvkQJd50QpCkNYs4-81" edge="1">
                    <mxGeometry relative="1" as="geometry">
                        <Array as="points">
                            <mxPoint x="690" y="1100"/>
                            <mxPoint x="690" y="1100"/>
                        </Array>
                    </mxGeometry>
                </mxCell>
                <mxCell id="i4efpvkQJd50QpCkNYs4-49" value="Any services&lt;br&gt;button clicked" style="shape=parallelogram;perimeter=parallelogramPerimeter;whiteSpace=wrap;html=1;fixedSize=1;" parent="i4efpvkQJd50QpCkNYs4-1" vertex="1">
                    <mxGeometry x="580" y="810" width="120" height="60" as="geometry"/>
                </mxCell>
                <mxCell id="i4efpvkQJd50QpCkNYs4-51" value="" style="endArrow=classic;html=1;entryX=0;entryY=0.5;entryDx=0;entryDy=0;exitX=0;exitY=0.25;exitDx=0;exitDy=0;" parent="i4efpvkQJd50QpCkNYs4-1" source="i4efpvkQJd50QpCkNYs4-58" target="i4efpvkQJd50QpCkNYs4-38" edge="1">
                    <mxGeometry relative="1" as="geometry">
                        <mxPoint x="40" y="940" as="sourcePoint"/>
                        <mxPoint x="-70" y="1060" as="targetPoint"/>
                        <Array as="points">
                            <mxPoint x="190" y="888"/>
                            <mxPoint x="190" y="730"/>
                            <mxPoint x="310" y="730"/>
                            <mxPoint x="480" y="730"/>
                            <mxPoint x="480" y="650"/>
                            <mxPoint x="480" y="570"/>
                        </Array>
                    </mxGeometry>
                </mxCell>
                <mxCell id="i4efpvkQJd50QpCkNYs4-52" value="Back" style="edgeLabel;resizable=0;html=1;align=center;verticalAlign=middle;" parent="i4efpvkQJd50QpCkNYs4-51" connectable="0" vertex="1">
                    <mxGeometry relative="1" as="geometry">
                        <mxPoint x="45" as="offset"/>
                    </mxGeometry>
                </mxCell>
                <mxCell id="i4efpvkQJd50QpCkNYs4-58" value="Display bookings" style="shape=parallelogram;perimeter=parallelogramPerimeter;whiteSpace=wrap;html=1;fixedSize=1;" parent="i4efpvkQJd50QpCkNYs4-1" vertex="1">
                    <mxGeometry x="262.5" y="870" width="120" height="60" as="geometry"/>
                </mxCell>
                <mxCell id="i4efpvkQJd50QpCkNYs4-59" value="" style="endArrow=classic;html=1;entryX=0.542;entryY=0.016;entryDx=0;entryDy=0;entryPerimeter=0;" parent="i4efpvkQJd50QpCkNYs4-1" source="i4efpvkQJd50QpCkNYs4-58" target="i4efpvkQJd50QpCkNYs4-62" edge="1">
                    <mxGeometry relative="1" as="geometry">
                        <mxPoint x="280" y="970" as="sourcePoint"/>
                        <mxPoint x="280" y="1050" as="targetPoint"/>
                    </mxGeometry>
                </mxCell>
                <mxCell id="i4efpvkQJd50QpCkNYs4-60" value="Edit" style="edgeLabel;resizable=0;html=1;align=center;verticalAlign=middle;" parent="i4efpvkQJd50QpCkNYs4-59" connectable="0" vertex="1">
                    <mxGeometry relative="1" as="geometry"/>
                </mxCell>
                <mxCell id="i4efpvkQJd50QpCkNYs4-61" value="" style="edgeStyle=orthogonalEdgeStyle;rounded=0;orthogonalLoop=1;jettySize=auto;html=1;" parent="i4efpvkQJd50QpCkNYs4-1" source="i4efpvkQJd50QpCkNYs4-62" target="i4efpvkQJd50QpCkNYs4-70" edge="1">
                    <mxGeometry relative="1" as="geometry">
                        <Array as="points">
                            <mxPoint x="280" y="1110"/>
                            <mxPoint x="280" y="1110"/>
                        </Array>
                    </mxGeometry>
                </mxCell>
                <mxCell id="i4efpvkQJd50QpCkNYs4-62" value="Receive modified&lt;br&gt;&amp;nbsp;item data" style="shape=parallelogram;perimeter=parallelogramPerimeter;whiteSpace=wrap;html=1;fixedSize=1;" parent="i4efpvkQJd50QpCkNYs4-1" vertex="1">
                    <mxGeometry x="252.5" y="960" width="130" height="60" as="geometry"/>
                </mxCell>
                <mxCell id="i4efpvkQJd50QpCkNYs4-63" value="" style="endArrow=classic;html=1;entryX=0.5;entryY=0;entryDx=0;entryDy=0;entryPerimeter=0;exitX=1;exitY=0.75;exitDx=0;exitDy=0;" parent="i4efpvkQJd50QpCkNYs4-1" source="i4efpvkQJd50QpCkNYs4-62" target="i4efpvkQJd50QpCkNYs4-65" edge="1">
                    <mxGeometry relative="1" as="geometry">
                        <mxPoint x="340" y="1050" as="sourcePoint"/>
                        <mxPoint x="420" y="1050" as="targetPoint"/>
                        <Array as="points">
                            <mxPoint x="440" y="1002"/>
                        </Array>
                    </mxGeometry>
                </mxCell>
                <mxCell id="i4efpvkQJd50QpCkNYs4-64" value="Delete" style="edgeLabel;resizable=0;html=1;align=center;verticalAlign=middle;" parent="i4efpvkQJd50QpCkNYs4-63" connectable="0" vertex="1">
                    <mxGeometry relative="1" as="geometry">
                        <mxPoint x="-6" as="offset"/>
                    </mxGeometry>
                </mxCell>
                <mxCell id="i4efpvkQJd50QpCkNYs4-65" value="Set deleted in database" style="shape=cylinder3;whiteSpace=wrap;html=1;boundedLbl=1;backgroundOutline=1;size=15;" parent="i4efpvkQJd50QpCkNYs4-1" vertex="1">
                    <mxGeometry x="410" y="1040" width="60" height="80" as="geometry"/>
                </mxCell>
                <mxCell id="i4efpvkQJd50QpCkNYs4-66" value="" style="endArrow=classic;html=1;entryX=0.888;entryY=0.775;entryDx=0;entryDy=0;exitX=1;exitY=0.5;exitDx=0;exitDy=0;entryPerimeter=0;" parent="i4efpvkQJd50QpCkNYs4-1" source="i4efpvkQJd50QpCkNYs4-62" target="i4efpvkQJd50QpCkNYs4-58" edge="1">
                    <mxGeometry relative="1" as="geometry">
                        <mxPoint x="340" y="1050" as="sourcePoint"/>
                        <mxPoint x="440" y="1050" as="targetPoint"/>
                        <Array as="points">
                            <mxPoint x="440" y="990"/>
                            <mxPoint x="440" y="940"/>
                            <mxPoint x="440" y="917"/>
                        </Array>
                    </mxGeometry>
                </mxCell>
                <mxCell id="i4efpvkQJd50QpCkNYs4-67" value="Back" style="edgeLabel;resizable=0;html=1;align=center;verticalAlign=middle;" parent="i4efpvkQJd50QpCkNYs4-66" connectable="0" vertex="1">
                    <mxGeometry relative="1" as="geometry"/>
                </mxCell>
                <mxCell id="i4efpvkQJd50QpCkNYs4-70" value="Set modified data in database and refresh data" style="shape=cylinder;whiteSpace=wrap;html=1;boundedLbl=1;backgroundOutline=1;" parent="i4efpvkQJd50QpCkNYs4-1" vertex="1">
                    <mxGeometry x="270" y="1050" width="105" height="110" as="geometry"/>
                </mxCell>
                <mxCell id="i4efpvkQJd50QpCkNYs4-71" value="" style="endArrow=classic;html=1;entryX=0;entryY=0.5;entryDx=0;entryDy=0;exitX=0.001;exitY=0.454;exitDx=0;exitDy=0;exitPerimeter=0;" parent="i4efpvkQJd50QpCkNYs4-1" source="i4efpvkQJd50QpCkNYs4-70" target="i4efpvkQJd50QpCkNYs4-58" edge="1">
                    <mxGeometry width="50" height="50" relative="1" as="geometry">
                        <mxPoint x="151.78932188134524" y="1245" as="sourcePoint"/>
                        <mxPoint x="151.78932188134524" y="1195" as="targetPoint"/>
                        <Array as="points">
                            <mxPoint x="200" y="1100"/>
                            <mxPoint x="200" y="900"/>
                        </Array>
                    </mxGeometry>
                </mxCell>
                <mxCell id="i4efpvkQJd50QpCkNYs4-72" value="" style="endArrow=classic;html=1;entryX=1;entryY=0.5;entryDx=0;entryDy=0;exitX=0;exitY=1;exitDx=0;exitDy=-15;exitPerimeter=0;" parent="i4efpvkQJd50QpCkNYs4-1" source="i4efpvkQJd50QpCkNYs4-65" target="i4efpvkQJd50QpCkNYs4-70" edge="1">
                    <mxGeometry width="50" height="50" relative="1" as="geometry">
                        <mxPoint x="360" y="1105" as="sourcePoint"/>
                        <mxPoint x="331" y="1210" as="targetPoint"/>
                        <Array as="points"/>
                    </mxGeometry>
                </mxCell>
                <mxCell id="i4efpvkQJd50QpCkNYs4-81" value="Choose&lt;br&gt;transaction &lt;br&gt;medium" style="shape=parallelogram;perimeter=parallelogramPerimeter;whiteSpace=wrap;html=1;fixedSize=1;" parent="i4efpvkQJd50QpCkNYs4-1" vertex="1">
                    <mxGeometry x="580" y="1040" width="120" height="60" as="geometry"/>
                </mxCell>
                <mxCell id="i4efpvkQJd50QpCkNYs4-86" value="" style="endArrow=classic;html=1;" parent="i4efpvkQJd50QpCkNYs4-1" source="i4efpvkQJd50QpCkNYs4-31" edge="1">
                    <mxGeometry width="50" height="50" relative="1" as="geometry">
                        <mxPoint x="225" y="665" as="sourcePoint"/>
                        <mxPoint x="460" y="300" as="targetPoint"/>
                        <Array as="points">
                            <mxPoint x="460" y="615"/>
                        </Array>
                    </mxGeometry>
                </mxCell>
                <mxCell id="i4efpvkQJd50QpCkNYs4-91" value="" style="endArrow=classic;html=1;exitX=0.5;exitY=1;exitDx=0;exitDy=0;" parent="i4efpvkQJd50QpCkNYs4-1" source="i4efpvkQJd50QpCkNYs4-120" target="i4efpvkQJd50QpCkNYs4-97" edge="1">
                    <mxGeometry width="50" height="50" relative="1" as="geometry">
                        <mxPoint x="690" y="1210" as="sourcePoint"/>
                        <mxPoint x="570" y="1910" as="targetPoint"/>
                        <Array as="points">
                            <mxPoint x="640" y="1320"/>
                            <mxPoint x="410" y="1320"/>
                            <mxPoint x="410" y="1680"/>
                        </Array>
                    </mxGeometry>
                </mxCell>
                <mxCell id="i4efpvkQJd50QpCkNYs4-92" value="Net banking" style="edgeLabel;html=1;align=center;verticalAlign=middle;resizable=0;points=[];" parent="i4efpvkQJd50QpCkNYs4-91" vertex="1" connectable="0">
                    <mxGeometry x="0.9213" relative="1" as="geometry">
                        <mxPoint x="-4" as="offset"/>
                    </mxGeometry>
                </mxCell>
                <mxCell id="i4efpvkQJd50QpCkNYs4-95" value="Receive UPI&lt;br&gt;&amp;nbsp;details" style="shape=parallelogram;perimeter=parallelogramPerimeter;whiteSpace=wrap;html=1;fixedSize=1;" parent="i4efpvkQJd50QpCkNYs4-1" vertex="1">
                    <mxGeometry x="510" y="1460" width="120" height="60" as="geometry"/>
                </mxCell>
                <mxCell id="i4efpvkQJd50QpCkNYs4-96" value="Receive paytm&amp;nbsp;&lt;br&gt;details" style="shape=parallelogram;perimeter=parallelogramPerimeter;whiteSpace=wrap;html=1;fixedSize=1;" parent="i4efpvkQJd50QpCkNYs4-1" vertex="1">
                    <mxGeometry x="160" y="1460" width="120" height="60" as="geometry"/>
                </mxCell>
                <mxCell id="i4efpvkQJd50QpCkNYs4-97" value="Receive net&amp;nbsp;&lt;br&gt;banking details" style="shape=parallelogram;perimeter=parallelogramPerimeter;whiteSpace=wrap;html=1;fixedSize=1;" parent="i4efpvkQJd50QpCkNYs4-1" vertex="1">
                    <mxGeometry x="510" y="1649.9999999999995" width="120" height="60" as="geometry"/>
                </mxCell>
                <mxCell id="i4efpvkQJd50QpCkNYs4-99" value="Update database" style="shape=cylinder3;whiteSpace=wrap;html=1;boundedLbl=1;backgroundOutline=1;size=15;" parent="i4efpvkQJd50QpCkNYs4-1" vertex="1">
                    <mxGeometry x="372" y="1754" width="60" height="80" as="geometry"/>
                </mxCell>
                <mxCell id="i4efpvkQJd50QpCkNYs4-100" value="" style="endArrow=classic;html=1;entryX=0;entryY=0.5;entryDx=0;entryDy=0;entryPerimeter=0;exitX=0.425;exitY=1;exitDx=0;exitDy=0;exitPerimeter=0;" parent="i4efpvkQJd50QpCkNYs4-1" source="i4efpvkQJd50QpCkNYs4-96" target="i4efpvkQJd50QpCkNYs4-99" edge="1">
                    <mxGeometry width="50" height="50" relative="1" as="geometry">
                        <mxPoint x="89.28932188134524" y="1540" as="sourcePoint"/>
                        <mxPoint x="89.28932188134524" y="1490" as="targetPoint"/>
                        <Array as="points">
                            <mxPoint x="210" y="1560"/>
                            <mxPoint x="210" y="1794"/>
                        </Array>
                    </mxGeometry>
                </mxCell>
                <mxCell id="i4efpvkQJd50QpCkNYs4-102" value="" style="endArrow=classic;html=1;entryX=1;entryY=0.5;entryDx=0;entryDy=0;entryPerimeter=0;" parent="i4efpvkQJd50QpCkNYs4-1" source="i4efpvkQJd50QpCkNYs4-95" target="i4efpvkQJd50QpCkNYs4-99" edge="1">
                    <mxGeometry width="50" height="50" relative="1" as="geometry">
                        <mxPoint x="630" y="1540" as="sourcePoint"/>
                        <mxPoint x="700.7106781186548" y="1490" as="targetPoint"/>
                        <Array as="points">
                            <mxPoint x="700" y="1490"/>
                            <mxPoint x="700" y="1794"/>
                        </Array>
                    </mxGeometry>
                </mxCell>
                <mxCell id="i4efpvkQJd50QpCkNYs4-103" value="" style="endArrow=classic;html=1;" parent="i4efpvkQJd50QpCkNYs4-1" source="i4efpvkQJd50QpCkNYs4-97" edge="1">
                    <mxGeometry width="50" height="50" relative="1" as="geometry">
                        <mxPoint x="630" y="1729.9999999999995" as="sourcePoint"/>
                        <mxPoint x="700" y="1680" as="targetPoint"/>
                    </mxGeometry>
                </mxCell>
                <mxCell id="i4efpvkQJd50QpCkNYs4-104" value="" style="endArrow=classic;html=1;exitX=0.5;exitY=1;exitDx=0;exitDy=0;exitPerimeter=0;entryX=0.5;entryY=1;entryDx=0;entryDy=0;" parent="i4efpvkQJd50QpCkNYs4-1" source="i4efpvkQJd50QpCkNYs4-99" target="kv-EeIZ5R_QERG43kqW9-11" edge="1">
                    <mxGeometry width="50" height="50" relative="1" as="geometry">
                        <mxPoint x="440" y="1869" as="sourcePoint"/>
                        <mxPoint x="790" y="1280" as="targetPoint"/>
                        <Array as="points">
                            <mxPoint x="402" y="1890"/>
                            <mxPoint x="750" y="1890"/>
                            <mxPoint x="750" y="1590"/>
                        </Array>
                    </mxGeometry>
                </mxCell>
                <mxCell id="i4efpvkQJd50QpCkNYs4-105" value="" style="endArrow=classic;html=1;" parent="i4efpvkQJd50QpCkNYs4-1" edge="1">
                    <mxGeometry relative="1" as="geometry">
                        <mxPoint x="217" y="1459" as="sourcePoint"/>
                        <mxPoint x="750" y="1390" as="targetPoint"/>
                        <Array as="points">
                            <mxPoint x="217" y="1390"/>
                        </Array>
                    </mxGeometry>
                </mxCell>
                <mxCell id="i4efpvkQJd50QpCkNYs4-106" value="Cancel" style="edgeLabel;resizable=0;html=1;align=center;verticalAlign=middle;" parent="i4efpvkQJd50QpCkNYs4-105" connectable="0" vertex="1">
                    <mxGeometry relative="1" as="geometry"/>
                </mxCell>
                <mxCell id="i4efpvkQJd50QpCkNYs4-107" value="" style="endArrow=classic;html=1;" parent="i4efpvkQJd50QpCkNYs4-1" source="i4efpvkQJd50QpCkNYs4-95" edge="1">
                    <mxGeometry relative="1" as="geometry">
                        <mxPoint x="570" y="1360" as="sourcePoint"/>
                        <mxPoint x="570" y="1390" as="targetPoint"/>
                    </mxGeometry>
                </mxCell>
                <mxCell id="i4efpvkQJd50QpCkNYs4-108" value="Cancel" style="edgeLabel;resizable=0;html=1;align=center;verticalAlign=middle;" parent="i4efpvkQJd50QpCkNYs4-107" connectable="0" vertex="1">
                    <mxGeometry relative="1" as="geometry"/>
                </mxCell>
                <mxCell id="i4efpvkQJd50QpCkNYs4-109" value="" style="endArrow=classic;html=1;" parent="i4efpvkQJd50QpCkNYs4-1" source="i4efpvkQJd50QpCkNYs4-97" edge="1">
                    <mxGeometry relative="1" as="geometry">
                        <mxPoint x="570" y="1549.9999999999995" as="sourcePoint"/>
                        <mxPoint x="660" y="1390" as="targetPoint"/>
                        <Array as="points">
                            <mxPoint x="570" y="1610"/>
                            <mxPoint x="660" y="1610"/>
                        </Array>
                    </mxGeometry>
                </mxCell>
                <mxCell id="i4efpvkQJd50QpCkNYs4-110" value="Cancel" style="edgeLabel;resizable=0;html=1;align=center;verticalAlign=middle;" parent="i4efpvkQJd50QpCkNYs4-109" connectable="0" vertex="1">
                    <mxGeometry relative="1" as="geometry"/>
                </mxCell>
                <mxCell id="i4efpvkQJd50QpCkNYs4-113" value="Back" style="edgeLabel;resizable=0;html=1;align=center;verticalAlign=middle;" parent="i4efpvkQJd50QpCkNYs4-1" connectable="0" vertex="1">
                    <mxGeometry x="770" y="1090" as="geometry"/>
                </mxCell>
                <mxCell id="i4efpvkQJd50QpCkNYs4-118" value="" style="endArrow=classic;html=1;entryX=0.5;entryY=1;entryDx=0;entryDy=0;exitX=0.592;exitY=-0.017;exitDx=0;exitDy=0;exitPerimeter=0;" parent="i4efpvkQJd50QpCkNYs4-1" source="kv-EeIZ5R_QERG43kqW9-2" target="i4efpvkQJd50QpCkNYs4-6" edge="1">
                    <mxGeometry width="50" height="50" relative="1" as="geometry">
                        <mxPoint x="402" y="500" as="sourcePoint"/>
                        <mxPoint x="490" y="460" as="targetPoint"/>
                        <Array as="points">
                            <mxPoint x="402" y="470"/>
                        </Array>
                    </mxGeometry>
                </mxCell>
                <mxCell id="i4efpvkQJd50QpCkNYs4-120" value="T" style="ellipse;whiteSpace=wrap;html=1;aspect=fixed;" parent="i4efpvkQJd50QpCkNYs4-1" vertex="1">
                    <mxGeometry x="620" y="1200" width="40" height="40" as="geometry"/>
                </mxCell>
                <mxCell id="i4efpvkQJd50QpCkNYs4-121" value="" style="endArrow=classic;html=1;entryX=0.5;entryY=0;entryDx=0;entryDy=0;" parent="i4efpvkQJd50QpCkNYs4-1" source="i4efpvkQJd50QpCkNYs4-81" target="i4efpvkQJd50QpCkNYs4-122" edge="1">
                    <mxGeometry width="50" height="50" relative="1" as="geometry">
                        <mxPoint x="690" y="1150" as="sourcePoint"/>
                        <mxPoint x="690" y="1120" as="targetPoint"/>
                    </mxGeometry>
                </mxCell>
                <mxCell id="i4efpvkQJd50QpCkNYs4-122" value="T" style="ellipse;whiteSpace=wrap;html=1;aspect=fixed;" parent="i4efpvkQJd50QpCkNYs4-1" vertex="1">
                    <mxGeometry x="620" y="1120" width="40" height="40" as="geometry"/>
                </mxCell>
                <mxCell id="i4efpvkQJd50QpCkNYs4-123" value="B" style="ellipse;whiteSpace=wrap;html=1;aspect=fixed;" parent="i4efpvkQJd50QpCkNYs4-1" vertex="1">
                    <mxGeometry x="730" y="1110" width="40" height="40" as="geometry"/>
                </mxCell>
                <mxCell id="i4efpvkQJd50QpCkNYs4-124" value="&lt;font style=&quot;font-size: 14px&quot; face=&quot;Times New Roman&quot;&gt;T - Transaction&lt;br&gt;B - Back&lt;/font&gt;" style="text;html=1;align=center;verticalAlign=middle;resizable=0;points=[];autosize=1;fillColor=none;shadow=0;strokeColor=#000000;" parent="i4efpvkQJd50QpCkNYs4-1" vertex="1">
                    <mxGeometry x="515" y="1195" width="100" height="30" as="geometry"/>
                </mxCell>
                <mxCell id="kv-EeIZ5R_QERG43kqW9-0" value="Any choice of&lt;br&gt;need button&lt;br&gt;clicked" style="shape=parallelogram;perimeter=parallelogramPerimeter;whiteSpace=wrap;html=1;fixedSize=1;" parent="i4efpvkQJd50QpCkNYs4-1" vertex="1">
                    <mxGeometry x="580" y="920" width="120" height="60" as="geometry"/>
                </mxCell>
                <mxCell id="kv-EeIZ5R_QERG43kqW9-1" value="" style="edgeStyle=orthogonalEdgeStyle;rounded=0;orthogonalLoop=1;jettySize=auto;html=1;endArrow=none;entryX=0.5;entryY=0;entryDx=0;entryDy=0;" parent="i4efpvkQJd50QpCkNYs4-1" source="i4efpvkQJd50QpCkNYs4-49" target="kv-EeIZ5R_QERG43kqW9-0" edge="1">
                    <mxGeometry relative="1" as="geometry">
                        <Array as="points"/>
                        <mxPoint x="700" y="870" as="sourcePoint"/>
                        <mxPoint x="700" y="910" as="targetPoint"/>
                    </mxGeometry>
                </mxCell>
                <mxCell id="kv-EeIZ5R_QERG43kqW9-2" value="Logout button&lt;br&gt;clicked" style="shape=parallelogram;perimeter=parallelogramPerimeter;whiteSpace=wrap;html=1;fixedSize=1;" parent="i4efpvkQJd50QpCkNYs4-1" vertex="1">
                    <mxGeometry x="330" y="510" width="120" height="60" as="geometry"/>
                </mxCell>
                <mxCell id="kv-EeIZ5R_QERG43kqW9-3" value="" style="endArrow=classic;html=1;entryX=1;entryY=0.75;entryDx=0;entryDy=0;" parent="i4efpvkQJd50QpCkNYs4-1" target="kv-EeIZ5R_QERG43kqW9-2" edge="1">
                    <mxGeometry width="50" height="50" relative="1" as="geometry">
                        <mxPoint x="530" y="552" as="sourcePoint"/>
                        <mxPoint x="412" y="340" as="targetPoint"/>
                        <Array as="points"/>
                    </mxGeometry>
                </mxCell>
                <mxCell id="kv-EeIZ5R_QERG43kqW9-11" value="B" style="ellipse;whiteSpace=wrap;html=1;aspect=fixed;" parent="i4efpvkQJd50QpCkNYs4-1" vertex="1">
                    <mxGeometry x="730" y="1200" width="40" height="40" as="geometry"/>
                </mxCell>
                <mxCell id="kv-EeIZ5R_QERG43kqW9-14" value="" style="endArrow=classic;html=1;exitX=0.5;exitY=0;exitDx=0;exitDy=0;entryX=1;entryY=0.5;entryDx=0;entryDy=0;" parent="i4efpvkQJd50QpCkNYs4-1" source="i4efpvkQJd50QpCkNYs4-123" target="i4efpvkQJd50QpCkNYs4-38" edge="1">
                    <mxGeometry width="50" height="50" relative="1" as="geometry">
                        <mxPoint x="740" y="1040" as="sourcePoint"/>
                        <mxPoint x="750" y="880" as="targetPoint"/>
                        <Array as="points">
                            <mxPoint x="750" y="570"/>
                        </Array>
                    </mxGeometry>
                </mxCell>
                <mxCell id="kv-EeIZ5R_QERG43kqW9-15" style="edgeStyle=none;rounded=0;orthogonalLoop=1;jettySize=auto;html=1;exitX=0.5;exitY=0;exitDx=0;exitDy=0;" parent="i4efpvkQJd50QpCkNYs4-1" source="i4efpvkQJd50QpCkNYs4-58" target="i4efpvkQJd50QpCkNYs4-58" edge="1">
                    <mxGeometry relative="1" as="geometry"/>
                </mxCell>
            </root>
        </mxGraphModel>
    </diagram>
</mxfile>